<?xml version="1.0" encoding="UTF-8"?>
<svg id="Layer_1" data-name="Layer 1" xmlns="http://www.w3.org/2000/svg" viewBox="0 0 888.95 986.06">
  <defs>
    <style>
      .cls-1 {
        fill: #e8be5e;
      }

      .cls-1, .cls-2, .cls-3, .cls-4, .cls-5, .cls-6 {
        stroke-miterlimit: 10;
      }

      .cls-1, .cls-4, .cls-5 {
        stroke: #fff;
        stroke-width: 12px;
      }

      .cls-7 {
        fill: #898b45;
      }

      .cls-8 {
        font-family: DroidSans-Bold, 'Droid Sans';
        font-size: 70px;
        font-weight: 700;
      }

      .cls-8, .cls-9 {
        fill: #474744;
      }

      .cls-2 {
        stroke: #3c5b54;
      }

      .cls-2, .cls-3, .cls-10, .cls-6 {
        fill: none;
      }

      .cls-2, .cls-3, .cls-6 {
        stroke-width: 19px;
      }

      .cls-3 {
        stroke: #898b3d;
      }

      .cls-4 {
        fill: #898b3e;
      }

      .cls-5 {
        fill: #3c5a53;
      }

      .cls-11 {
        fill: #e5be66;
      }

      .cls-6 {
        stroke: #e8be5e;
      }

      .cls-12 {
        fill: #3f5c55;
      }
    </style>
  </defs>
  <rect class="cls-9" x="250.26" y="709.85" width="424.68" height="3.97" rx="1.28" ry="1.28"/>
  <rect class="cls-11" x="452.89" y="618.6" width="223.29" height="17.88"/>
  <rect class="cls-7" x="2.54" y="571.72" width="261.69" height="17.88"/>
  <path class="cls-2" d="m171.95,713.84c-2.59-83.76,77.18-148.53,159.5-146,92.99,2.85,148.41,63.55,157.07,144.69"/>
  <path class="cls-3" d="m196.81,441.04c65.9,14.88,110.49,66.99,111.58,137.51"/>
  <path class="cls-3" d="m9.5,589.6c1.21-78.09,64.9-141.02,143.28-141.02,10.89,0,21.5,1.22,31.7,3.52"/>
  <path class="cls-6" d="m524.43,494.47c79.16,1.74,142.77,63.25,142.77,138.88"/>
  <path class="cls-6" d="m410.22,525.43c26.62-26.49,64.17-43,105.76-43,1.15,0,2.3.01,3.44.04"/>
  <circle class="cls-1" cx="506.72" cy="433.9" r="89.18"/>
  <circle class="cls-4" cx="169.36" cy="387.94" r="89.18"/>
  <circle class="cls-5" cx="330.27" cy="513.25" r="89.18"/>
  <rect class="cls-12" x="165.36" y="695.96" width="330.29" height="17.88"/>
  <rect class="cls-10" x="87.48" y="237.84" width="66.35" height="25.18" transform="translate(-124.21 118.84) rotate(-36.02)"/>
  <rect class="cls-9" x="29.72" y="138.01" width="481.85" height="33.22" rx="2.97" ry="2.97" transform="translate(-39.18 188.74) rotate(-36.02)"/>
  <rect class="cls-9" x="398.39" y="142.14" width="500.54" height="33.22" rx="2.62" ry="2.62" transform="translate(1082.1 666.77) rotate(-144.22)"/>
  <rect class="cls-9" x="523.78" y="502.56" width="487.37" height="33.22" rx="2.62" ry="2.62" transform="translate(34.47 1085.98) rotate(-71.79)"/>
  <rect class="cls-9" x="258.84" y="722.09" width="449.07" height="33.63" rx="2.62" ry="2.62" transform="translate(4.67 -3.03) rotate(.36)"/>
  <rect class="cls-9" x="70.42" y="182.3" width="426.6" height="3.66" rx="1.46" ry="1.46" transform="translate(-54.09 200.91) rotate(-35.83)"/>
  <rect class="cls-9" x="414.1" y="183.94" width="432.48" height="3.97" rx=".76" ry=".76" transform="translate(1034.86 703.86) rotate(-144.42)"/>
  <rect class="cls-9" x="526.53" y="509.48" width="424.68" height="3.97" rx=".61" ry=".61" transform="translate(22.14 1053.52) rotate(-71.79)"/>
  <text class="cls-8" transform="translate(6.36 874.24)"><tspan x="0" y="0">Office of Human Resource</tspan><tspan x="217.81" y="95">Management</tspan></text>
  <rect class="cls-12" x="493.04" y="709.93" width="4.88" height="3.8" transform="translate(-54.4 41.14) rotate(-4.51)"/>
</svg>