<svg id="e2sjnSdExpM1" xmlns="http://www.w3.org/2000/svg" xmlns:xlink="http://www.w3.org/1999/xlink" viewBox="0 0 888.95 986.06" shape-rendering="geometricPrecision" text-rendering="geometricPrecision">
<style><![CDATA[
#e2sjnSdExpM2 {animation: e2sjnSdExpM2_c_o 4000ms linear 1 normal forwards}@keyframes e2sjnSdExpM2_c_o { 0% {opacity: 0} 50% {opacity: 0;animation-timing-function: cubic-bezier(0.42,0,1,1)} 100% {opacity: 1}} #e2sjnSdExpM5 {animation: e2sjnSdExpM5_c_o 4000ms linear 1 normal forwards}@keyframes e2sjnSdExpM5_c_o { 0% {opacity: 0} 37.5% {opacity: 0;animation-timing-function: cubic-bezier(0.42,0,0.58,1)} 62.5% {opacity: 1} 100% {opacity: 1}} #e2sjnSdExpM15 {animation: e2sjnSdExpM15_c_o 4000ms linear 1 normal forwards}@keyframes e2sjnSdExpM15_c_o { 0% {opacity: 0} 25% {opacity: 0;animation-timing-function: cubic-bezier(0.685,0.015,0.745,0.715)} 50% {opacity: 1} 100% {opacity: 1}} #e2sjnSdExpM20 {animation: e2sjnSdExpM20_c_o 4000ms linear 1 normal forwards}@keyframes e2sjnSdExpM20_c_o { 0% {opacity: 0} 12.5% {opacity: 0;animation-timing-function: cubic-bezier(0.69,0,0.745,0.715)} 37.5% {opacity: 1} 100% {opacity: 1}} #e2sjnSdExpM25_to {animation: e2sjnSdExpM25_to__to 4000ms linear 1 normal forwards}@keyframes e2sjnSdExpM25_to__to { 0% {transform: translate(330px,618px);animation-timing-function: cubic-bezier(0.42,0,0.58,1)} 25% {transform: translate(330px,568.955017px)} 100% {transform: translate(330px,568.955017px)}} #e2sjnSdExpM25 {animation: e2sjnSdExpM25_c_o 4000ms linear 1 normal forwards}@keyframes e2sjnSdExpM25_c_o { 0% {opacity: 0} 2.5% {opacity: 0;animation-timing-function: cubic-bezier(0.71,0,0.745,0.715)} 27.5% {opacity: 1} 100% {opacity: 1}}
]]></style>
<text id="e2sjnSdExpM2" dx="0" dy="0" font-family="&quot;DroidSans-Bold, Droid Sans&quot;" font-size="70" font-weight="700" transform="translate(6.36 874.24)" opacity="0" fill="#474744"><tspan x="0" y="0" font-family="&quot;DroidSans-Bold, Droid Sans&quot;" font-size="70" font-weight="700" font-style="normal" fill="#474744"><![CDATA[
Office of Human Resource
]]></tspan><tspan x="217.81" y="95" font-family="&quot;DroidSans-Bold, Droid Sans&quot;" font-size="70" font-weight="700" font-style="normal" fill="#474744"><![CDATA[
Management
]]></tspan></text><g id="e2sjnSdExpM5" opacity="0"><rect width="424.68" height="3.97" rx="1.28" ry="1.28" transform="translate(250.26 709.85)" fill="#474744"/><rect width="432.48" height="3.97" rx="0.76" ry="0.76" transform="matrix(-.813304-.581839 0.581839-.813304 805.094282 313.321336)" fill="#474744"/><rect width="426.6" height="3.66" rx="1.46" ry="1.46" transform="matrix(.810757-.585382 0.585382 0.810757 109.718565 307.488347)" fill="#474744"/><rect width="449.07" height="33.63" rx="2.62" ry="2.62" transform="matrix(.99998 0.006283-.006283 0.99998 258.967996 720.67204)" fill="#474744"/><rect width="487.37" height="33.22" rx="2.62" ry="2.62" transform="matrix(.312501-.949918 0.949918 0.312501 675.542858 745.482296)" fill="#474744"/><rect width="500.54" height="33.22" rx="2.62" ry="2.62" transform="matrix(-.811268-.584675 0.584675-.811268 842.004723 318.527801)" fill="#474744"/><rect width="481.85" height="33.22" rx="2.97" ry="2.97" transform="matrix(.808812-.588068 0.588068 0.808812 66.017114 282.886724)" fill="#474744"/><rect width="66.35" height="25.18" rx="0" ry="0" transform="matrix(.808812-.588068 0.588068 0.808812 86.41088 259.763599)" fill="none"/><rect width="424.68" height="3.97" rx="0.61" ry="0.61" transform="matrix(.312501-.949918 0.949918 0.312501 670.645672 712.572529)" fill="#474744"/></g><g id="e2sjnSdExpM15" opacity="0"><rect width="223.29" height="17.88" rx="0" ry="0" transform="translate(452.89 618.6)" fill="#e5be66"/><path d="M410.22,525.43c26.62-26.49,64.17-43,105.76-43c1.15,0,2.3.01,3.44.04" fill="none" stroke="#e8be5e" stroke-width="19" stroke-miterlimit="10"/><path d="M524.43,494.47c79.16,1.74,142.77,63.25,142.77,138.88" fill="none" stroke="#e8be5e" stroke-width="19" stroke-miterlimit="10"/><circle r="89.18" transform="translate(506.72 433.9)" fill="#e8be5e" stroke="#fff" stroke-width="12" stroke-miterlimit="10"/></g><g id="e2sjnSdExpM20" transform="translate(.000001 0)" opacity="0"><rect width="261.69" height="17.88" rx="0" ry="0" transform="translate(2.54 571.72)" fill="#898b45"/><path d="M196.81,441.04c65.9,14.88,110.49,66.99,111.58,137.51" fill="none" stroke="#898b3d" stroke-width="19" stroke-miterlimit="10"/><path d="M9.5,589.6c1.21-78.09,64.9-141.02,143.28-141.02c10.89,0,21.5,1.22,31.7,3.52" fill="none" stroke="#898b3d" stroke-width="19" stroke-miterlimit="10"/><circle r="89.18" transform="translate(169.36 387.94)" fill="#898b3e" stroke="#fff" stroke-width="12" stroke-miterlimit="10"/></g><g id="e2sjnSdExpM25_to" transform="translate(330,618)"><g id="e2sjnSdExpM25" transform="translate(-330.50502,-568.955017)" opacity="0"><path d="M171.95,713.84c-2.59-83.76,77.18-148.53,159.5-146c92.99,2.85,148.41,63.55,157.07,144.69" fill="none" stroke="#3c5b54" stroke-width="19" stroke-miterlimit="10"/><circle r="89.18" transform="translate(330.27 513.25)" fill="#3c5a53" stroke="#fff" stroke-width="12" stroke-miterlimit="10"/><rect width="330.29" height="17.88" rx="0" ry="0" transform="translate(165.36 695.96)" fill="#3f5c55"/><rect width="4.88" height="3.8" rx="0" ry="0" transform="matrix(.996904-.078633 0.078633 0.996904 492.937271 710.102599)" fill="#3f5c55"/></g></g></svg>
